<svg id="SvgjsSvg1001" width="288" height="288" xmlns="http://www.w3.org/2000/svg" version="1.1" xmlns:xlink="http://www.w3.org/1999/xlink" xmlns:svgjs="http://svgjs.com/svgjs"><defs id="SvgjsDefs1002"></defs><g id="SvgjsG1008"><svg xmlns="http://www.w3.org/2000/svg" width="288" height="288" viewBox="0 0 500 500"><path fill="#ffffff" stroke="#ffffff" d="M -78.86993 -211.74862 L -283.49612 141.73649000000003 L -244.60723000000002 211.74862000000002 L -131.45888000000002 208.97084 L -171.27390000000003 141.74371000000002 L -26.273900000000026 -111.58470999999997 L 102.05942999999996 -111.58470999999997 L 225.71833999999996 95.14840000000004 L 283.49611999999996 -1.8886399999999668 L 160.53315999999995 -211.74860999999999 z" transform="matrix(.54 0 0 .57 290.33 174.33)" vector-effect="non-scaling-stroke" class="color000013 svgShape colorStroke000 svgStroke"></path><path fill="#ffffff" stroke="#ffffff" d="M -78.86993 -211.74862 L -283.49612 141.73649000000003 L -244.60723000000002 211.74862000000002 L -131.45888000000002 208.97084 L -171.27390000000003 141.74371000000002 L -26.273900000000026 -111.58470999999997 L 102.05942999999996 -111.58470999999997 L 225.71833999999996 95.14840000000004 L 283.49611999999996 -1.8886399999999668 L 160.53315999999995 -211.74860999999999 z" transform="matrix(-.28 -.49 .46 -.29 190.68 274.89)" vector-effect="non-scaling-stroke" class="color000013 svgShape colorStroke000 svgStroke"></path><path fill="#ffffff" stroke="#ffffff" d="M -78.86993 -211.74862 L -283.49612 141.73649000000003 L -244.60723000000002 211.74862000000002 L -131.45888000000002 208.97084 L -171.27390000000003 141.74371000000002 L -26.273900000000026 -111.58470999999997 L 102.05942999999996 -111.58470999999997 L 225.71833999999996 95.14840000000004 L 283.49611999999996 -1.8886399999999668 L 160.53315999999995 -211.74860999999999 z" transform="matrix(-.27 .49 -.47 -.28 323.65 312.9)" vector-effect="non-scaling-stroke" class="color000013 svgShape colorStroke000 svgStroke"></path></svg></g></svg>