<?xml version="1.0" standalone="no"?>
<!DOCTYPE svg PUBLIC "-//W3C//DTD SVG 20010904//EN"
 "http://www.w3.org/TR/2001/REC-SVG-20010904/DTD/svg10.dtd">
<svg version="1.0" xmlns="http://www.w3.org/2000/svg"
 width="1080.000000pt" height="1080.000000pt" viewBox="0 0 1080.000000 1080.000000"
 preserveAspectRatio="xMidYMid meet">
<metadata>
Created by potrace 1.11, written by Peter Selinger 2001-2013
</metadata>
<g transform="translate(0.000000,1080.000000) scale(0.100000,-0.100000)"
fill="#000000" stroke="none">
<path d="M0 5400 l0 -5400 5400 0 5400 0 0 5400 0 5400 -5400 0 -5400 0 0
-5400z m8381 4743 c8 -15 35 -60 62 -100 26 -40 47 -75 47 -79 0 -3 9 -19 20
-34 11 -15 41 -68 67 -117 25 -48 57 -105 70 -125 12 -21 23 -40 23 -42 0 -3
23 -39 50 -80 28 -42 50 -79 50 -83 0 -14 45 -96 94 -171 26 -40 60 -96 75
-125 15 -29 38 -69 49 -89 29 -50 53 -92 87 -153 15 -27 35 -61 44 -75 9 -14
23 -38 31 -55 8 -16 28 -50 45 -75 17 -25 37 -58 45 -75 8 -16 22 -42 32 -57
10 -14 31 -50 46 -80 16 -29 44 -80 62 -113 18 -33 38 -69 44 -80 6 -11 32
-53 59 -93 26 -40 47 -75 47 -78 0 -3 9 -19 20 -34 11 -16 34 -55 51 -87 17
-32 58 -107 92 -166 105 -183 115 -201 133 -237 10 -19 30 -54 46 -77 15 -23
28 -44 28 -47 0 -3 15 -30 34 -59 57 -89 76 -126 76 -150 0 -13 -18 -51 -40
-85 -22 -33 -40 -64 -40 -68 0 -4 -6 -15 -14 -23 -8 -9 -30 -47 -50 -85 -20
-38 -44 -80 -54 -95 -10 -14 -24 -39 -32 -56 -8 -16 -20 -37 -26 -45 -7 -8
-25 -40 -41 -70 -16 -30 -49 -86 -74 -125 -26 -38 -52 -88 -60 -110 -8 -22
-29 -62 -47 -89 -19 -27 -46 -72 -61 -100 -15 -28 -38 -69 -52 -91 -14 -22
-45 -80 -69 -130 -62 -127 -109 -174 -128 -127 -4 10 -32 59 -62 110 -30 52
-64 110 -75 130 -47 86 -85 154 -148 259 -36 62 -87 152 -112 199 -25 47 -54
99 -65 114 -11 15 -35 54 -53 87 -19 32 -63 108 -98 168 -36 61 -72 127 -82
147 -10 20 -22 40 -27 43 -5 3 -21 31 -37 63 -15 31 -52 97 -82 147 -80 133
-111 188 -118 208 -3 9 -9 17 -14 17 -5 0 -9 9 -9 20 0 11 -4 20 -10 20 -5 0
-10 5 -10 11 0 6 -8 23 -19 37 -18 26 -52 85 -95 165 -11 21 -27 45 -36 55 -8
9 -30 46 -48 82 -18 36 -42 81 -55 102 -25 41 -105 175 -136 228 -22 38 -58
106 -102 191 -39 76 -110 193 -123 201 -6 4 -398 8 -870 8 l-859 0 -36 -39
c-20 -22 -49 -65 -66 -98 -16 -32 -35 -65 -42 -74 -7 -8 -43 -76 -81 -150 -37
-74 -88 -165 -112 -204 -25 -38 -52 -83 -60 -100 -8 -16 -20 -37 -26 -45 -7
-8 -30 -50 -52 -93 -22 -43 -45 -83 -50 -90 -6 -6 -23 -37 -39 -67 -16 -30
-50 -87 -76 -127 -26 -40 -47 -75 -47 -78 0 -4 -9 -19 -20 -34 -10 -16 -38
-66 -62 -112 -23 -46 -55 -103 -70 -125 -15 -23 -28 -45 -28 -50 0 -4 -6 -15
-14 -23 -8 -9 -32 -50 -53 -91 -21 -41 -51 -94 -66 -117 -15 -24 -27 -45 -27
-47 0 -3 -13 -25 -30 -49 -16 -25 -30 -47 -30 -50 0 -3 -20 -35 -45 -72 -24
-37 -57 -92 -71 -123 -15 -32 -33 -64 -40 -72 -7 -8 -25 -40 -41 -70 -16 -30
-41 -74 -56 -97 -15 -24 -27 -45 -27 -48 0 -3 -16 -29 -37 -57 -20 -29 -60
-98 -89 -155 -29 -57 -61 -115 -71 -130 -10 -16 -25 -41 -33 -58 -8 -16 -27
-49 -42 -71 -16 -23 -28 -44 -28 -47 0 -3 -22 -39 -49 -80 -27 -40 -55 -91
-63 -113 -7 -21 -35 -71 -61 -111 -26 -40 -47 -74 -47 -77 0 -3 -12 -22 -26
-43 -37 -55 -68 -125 -65 -148 3 -23 76 -154 131 -235 21 -30 41 -66 45 -80 4
-14 13 -32 20 -40 7 -8 24 -35 38 -60 13 -25 51 -88 83 -140 31 -52 72 -123
91 -158 18 -35 46 -82 60 -105 67 -103 67 -115 -4 -112 -26 1 -373 3 -770 4
l-722 1 -34 63 c-18 34 -45 82 -58 107 -13 25 -26 47 -29 50 -6 6 -24 36 -75
130 -23 41 -63 111 -90 155 -55 91 -113 193 -212 372 l-34 63 36 66 c19 37 51
92 69 123 18 31 49 83 68 116 77 134 123 210 128 215 3 3 20 34 39 70 19 36
53 98 77 137 24 40 44 77 44 82 0 5 3 11 8 13 4 2 20 28 36 58 16 30 42 74 58
97 15 23 28 44 28 46 0 3 21 41 46 84 26 43 59 101 74 128 15 28 37 67 48 87
12 21 38 68 58 105 21 37 49 86 63 108 28 45 40 65 100 180 24 44 49 87 57 96
8 8 14 19 14 23 0 5 14 28 30 53 17 24 30 45 30 47 0 2 29 54 65 115 36 62 65
116 65 122 0 5 3 9 8 9 4 0 15 17 25 38 9 20 29 55 42 77 14 22 35 58 46 80
12 22 27 47 34 55 7 8 29 46 49 84 20 38 45 81 56 96 11 16 20 30 20 33 0 9
132 233 149 252 18 21 44 65 113 195 23 41 66 118 98 170 69 113 90 151 143
250 22 41 48 86 57 100 9 14 33 54 53 90 21 36 42 72 47 80 11 18 87 152 142
250 61 109 71 125 77 130 3 3 13 19 21 35 8 17 25 47 38 68 13 21 32 54 43 73
10 19 27 49 38 67 61 105 91 159 91 164 0 2 13 23 28 46 16 23 41 68 58 99
l29 58 1641 0 1641 0 14 -27z m-5068 -1899 c3 -3 2 -14 -2 -23 -5 -9 -21 -43
-37 -76 -16 -33 -43 -82 -62 -109 -19 -27 -46 -72 -61 -100 -15 -28 -38 -69
-52 -91 -13 -22 -31 -53 -39 -70 -8 -16 -23 -43 -34 -59 -11 -16 -33 -56 -50
-90 -17 -33 -61 -106 -97 -162 -37 -55 -73 -118 -80 -140 -8 -21 -28 -58 -46
-82 -18 -23 -40 -59 -49 -80 -10 -20 -23 -44 -30 -52 -7 -9 -35 -58 -61 -110
-27 -52 -69 -126 -94 -165 -24 -38 -51 -83 -59 -100 -8 -16 -32 -52 -52 -80
-21 -27 -38 -54 -38 -59 0 -5 -6 -17 -14 -25 -8 -9 -32 -51 -54 -94 -22 -43
-45 -83 -50 -90 -6 -6 -23 -37 -39 -67 -16 -30 -41 -74 -56 -97 -15 -24 -27
-45 -27 -47 0 -3 -13 -25 -30 -49 -17 -25 -30 -48 -30 -53 0 -4 -6 -15 -14
-23 -8 -9 -31 -50 -51 -91 -21 -41 -43 -82 -50 -90 -7 -8 -26 -40 -42 -70 -16
-30 -41 -74 -56 -97 -15 -24 -27 -45 -27 -47 0 -3 -11 -22 -25 -42 -14 -21
-28 -49 -32 -63 -3 -14 -21 -46 -38 -71 -60 -85 -59 -80 -14 -167 22 -43 46
-85 53 -93 7 -8 20 -28 28 -45 8 -16 44 -77 79 -135 35 -58 76 -128 91 -156
16 -28 34 -62 41 -75 7 -13 25 -43 40 -66 15 -24 27 -45 27 -48 0 -3 19 -35
43 -72 23 -38 49 -81 57 -98 8 -16 22 -41 31 -55 9 -14 25 -41 36 -60 53 -94
73 -129 102 -178 17 -29 31 -55 31 -59 0 -3 15 -26 33 -52 18 -25 39 -59 47
-76 8 -16 32 -56 53 -87 l38 -58 527 0 c3116 -1 3426 0 3434 13 25 39 70 118
135 237 17 30 40 72 52 93 11 20 31 54 42 75 12 20 30 51 40 67 10 17 26 46
35 65 10 19 25 46 34 60 10 14 28 45 42 70 14 25 37 65 51 90 15 25 39 69 53
98 l27 53 23 -22 c12 -11 28 -35 35 -52 8 -18 34 -64 60 -102 25 -39 49 -80
53 -93 4 -12 23 -46 42 -75 19 -28 37 -61 40 -71 4 -11 25 -49 48 -85 23 -36
48 -79 56 -96 8 -16 26 -48 41 -70 14 -22 39 -65 55 -95 15 -30 41 -74 56 -97
15 -23 28 -44 28 -48 0 -3 18 -34 40 -69 22 -35 40 -66 40 -70 0 -4 20 -39 45
-77 25 -38 45 -71 45 -73 0 -2 16 -32 35 -66 19 -34 35 -68 35 -75 0 -14 -83
-179 -121 -240 -13 -22 -36 -62 -49 -90 -14 -27 -42 -72 -62 -100 -21 -27 -38
-54 -38 -58 0 -5 -13 -27 -29 -50 -15 -23 -34 -60 -42 -82 -8 -22 -28 -59 -46
-82 -17 -23 -50 -81 -73 -128 -23 -46 -51 -92 -63 -100 -19 -13 -329 -15
-2750 -15 -1862 0 -2734 3 -2748 10 -10 6 -19 15 -19 21 0 5 -18 39 -40 75
-22 36 -40 68 -40 70 0 2 -15 27 -32 57 -18 29 -38 61 -45 72 -24 39 -98 170
-102 180 -2 6 -12 21 -22 35 -9 14 -32 53 -50 85 -18 33 -55 98 -82 145 -58
98 -100 170 -177 306 -30 53 -70 122 -89 153 -18 31 -48 84 -66 118 -18 34
-42 75 -52 90 -10 15 -25 42 -33 58 -8 17 -26 48 -41 70 -14 22 -37 60 -51 85
-14 25 -50 89 -81 143 -32 54 -57 100 -57 103 0 3 -8 18 -19 32 -10 15 -28 43
-38 62 -27 47 -200 346 -226 390 -11 19 -40 71 -65 115 -24 44 -53 92 -63 107
-11 14 -19 29 -19 32 0 4 -12 25 -27 49 -15 23 -32 51 -38 62 -6 11 -23 42
-38 68 -28 49 -34 86 -18 103 9 8 17 23 80 134 14 25 29 47 33 48 4 2 8 9 8
15 0 7 18 40 40 75 22 34 40 64 40 66 0 4 36 68 120 211 28 50 62 108 75 130
41 73 69 120 75 125 3 3 17 28 31 55 14 28 56 101 92 164 37 62 67 118 67 122
0 5 3 9 8 9 4 0 13 15 21 33 8 17 22 44 33 59 20 29 73 121 126 218 20 36 47
83 61 105 14 22 38 64 54 94 16 30 37 67 48 82 10 15 19 30 19 33 0 4 18 36
40 72 22 36 40 68 40 70 0 2 20 38 45 80 25 41 45 79 45 83 0 4 9 16 20 26 11
10 20 21 20 26 0 6 23 49 93 169 11 19 31 55 45 79 14 25 38 68 55 95 86 145
177 308 177 316 0 5 6 11 13 13 18 7 1532 8 1540 1z m3966 -16 c10 -10 31 -45
48 -76 16 -32 51 -91 76 -130 26 -40 47 -76 47 -80 1 -13 35 -77 73 -135 20
-31 37 -62 37 -67 0 -5 20 -41 45 -80 25 -39 45 -72 45 -75 0 -2 14 -28 31
-57 18 -29 47 -82 67 -118 59 -109 85 -155 126 -216 22 -33 59 -97 84 -144 25
-47 52 -96 62 -110 9 -14 34 -56 55 -95 20 -38 44 -77 51 -86 8 -8 14 -19 14
-24 0 -4 11 -22 24 -40 25 -32 48 -71 96 -160 14 -27 38 -70 52 -95 14 -25 42
-75 61 -112 20 -37 53 -93 74 -125 21 -32 56 -94 78 -138 22 -44 51 -96 65
-115 15 -19 38 -55 52 -80 49 -89 70 -125 78 -135 5 -6 22 -35 38 -65 81 -153
104 -196 112 -205 4 -5 17 -26 27 -45 11 -19 32 -57 48 -85 15 -27 36 -62 46
-77 11 -14 19 -29 19 -33 0 -3 12 -25 28 -48 40 -63 50 -79 69 -117 9 -19 28
-53 42 -75 14 -22 26 -42 27 -45 5 -22 25 -58 38 -69 9 -7 16 -20 16 -27 0 -8
4 -14 8 -14 5 0 20 -21 33 -47 13 -27 35 -66 50 -88 14 -22 40 -67 57 -100 38
-73 91 -166 102 -180 5 -5 24 -39 43 -75 46 -88 77 -143 87 -155 4 -5 17 -26
28 -45 71 -125 94 -165 112 -190 11 -16 23 -42 26 -59 4 -18 16 -39 28 -49 12
-9 35 -44 50 -77 16 -33 42 -79 58 -102 15 -23 28 -44 28 -48 0 -3 16 -31 35
-61 53 -82 53 -84 -56 -249 -36 -55 -80 -131 -98 -170 -19 -38 -46 -88 -60
-110 -15 -22 -33 -53 -41 -70 -8 -16 -34 -59 -58 -94 -23 -35 -45 -76 -49 -90
-3 -14 -11 -33 -18 -41 -7 -8 -26 -40 -42 -70 -16 -30 -49 -86 -73 -125 -25
-38 -52 -83 -60 -100 -8 -16 -27 -46 -42 -66 -15 -20 -56 -92 -90 -160 -35
-68 -76 -143 -91 -166 -15 -24 -27 -45 -27 -47 0 -2 -22 -38 -50 -79 -27 -41
-50 -79 -50 -84 0 -6 -17 -36 -38 -69 -20 -32 -44 -72 -52 -89 -8 -16 -27 -49
-42 -71 -16 -23 -28 -44 -28 -47 0 -4 -13 -26 -30 -50 -16 -25 -30 -48 -30
-52 0 -3 -13 -26 -30 -50 -16 -24 -30 -48 -30 -53 0 -5 -17 -35 -38 -68 -20
-32 -44 -72 -52 -89 -8 -16 -20 -37 -26 -45 -7 -8 -30 -50 -52 -93 -22 -43
-45 -83 -50 -90 -6 -6 -23 -37 -39 -67 -16 -30 -41 -74 -56 -97 -15 -24 -27
-46 -28 -50 0 -5 -19 -35 -43 -68 l-42 -60 -1619 -3 c-891 -1 -1629 0 -1640 2
-12 3 -32 29 -49 63 -17 32 -42 76 -57 98 -26 39 -36 57 -106 185 -17 30 -40
72 -52 93 -11 20 -29 52 -40 70 -10 17 -43 73 -73 122 -30 50 -67 115 -84 145
-16 30 -32 57 -36 58 -5 2 -8 8 -8 13 0 5 -22 46 -49 91 -67 115 -133 226
-151 258 -8 14 -30 49 -48 78 -19 28 -32 59 -30 69 3 17 76 18 1646 18 l1643
0 19 25 c11 14 20 28 20 32 0 3 16 35 36 70 20 34 52 92 71 128 19 36 69 125
112 198 42 73 88 155 103 183 15 27 36 63 48 78 11 16 20 32 20 36 0 4 10 21
22 38 12 17 38 61 56 97 19 36 49 88 68 116 18 28 39 64 46 80 7 16 15 31 18
34 3 3 10 14 16 25 62 114 78 142 90 156 8 8 14 18 14 22 0 3 25 44 55 91 30
46 55 87 55 91 0 3 -13 25 -29 48 -15 23 -39 62 -53 87 -14 25 -51 87 -82 138
-31 51 -56 95 -56 98 0 3 -13 25 -30 49 -16 24 -30 46 -30 49 0 3 -16 30 -35
60 -19 30 -35 57 -35 60 0 3 -38 68 -85 145 -47 78 -85 145 -85 151 0 5 -3 10
-8 10 -4 0 -15 17 -24 38 -21 44 -73 137 -98 172 -9 14 -35 59 -56 100 -21 41
-42 77 -46 78 -5 2 -8 7 -8 12 0 4 -19 39 -42 76 -23 38 -56 94 -73 124 -77
132 -145 253 -145 255 0 2 -19 34 -42 71 -23 38 -61 103 -83 144 -70 127 -97
173 -124 215 -15 22 -33 54 -41 70 -8 17 -19 37 -26 45 -6 8 -26 44 -44 80
-19 36 -39 72 -46 80 -6 8 -26 42 -44 75 -60 108 -72 130 -80 140 -7 9 -30 47
-67 115 -8 14 -23 39 -33 55 -30 47 -57 94 -103 180 -24 44 -53 97 -65 118
-39 66 -58 101 -98 177 -21 41 -45 80 -54 87 -17 14 -970 18 -1053 4 -62 -10
-67 1 -31 65 15 27 36 65 47 84 11 19 27 46 37 60 10 14 29 48 44 75 26 50 37
68 67 115 9 14 26 42 38 63 11 20 29 52 39 70 10 17 34 59 52 92 18 33 39 67
46 76 8 8 14 18 14 21 0 3 30 57 66 119 37 63 78 134 92 159 14 25 34 60 44
78 10 17 28 49 39 70 12 20 29 48 39 62 9 14 30 50 46 80 16 30 33 58 39 62 5
5 252 7 548 7 514 -2 539 -2 556 -21z"/>
</g>
</svg>
